An imprisoned vampire, Barnabas Collins, is set free and returns to his ancestral home, where his dysfunctional descendants are in need of his protection.

Johnny Depp	...	Barnabas Collins
Michelle Pfeiffer	...	Elizabeth Collins Stoddard
Helena Bonham Carter	...	Dr. Julia Hoffman
Eva Green	...	Angelique Bouchard
Jackie Earle Haley	...	Willie Loomis
Jonny Lee Miller	...	Roger Collins

General
Complete name : Dark Shadows-Cropped-Xvid Mp3-ADTRG.avi
Encoder : SP1
Source : Lucif3r [Thanks]
Format : AVI
Format/Info : Audio Video Interleave
File size : 1.22 GiB
Duration : 1h 52mn
Overall bit rate : 1 550 Kbps
Writing application : VirtualDubMod 1.5.10.2 (build 2540/release)
Writing library : VirtualDub build 32842/release

Video
ID : 0
Format : MPEG-4 Visual
Format profile : Advanced Simple@L5
Format settings, BVOP : 2
Format settings, QPel : No
Format settings, GMC : No warppoints
Format settings, Matrix : Default (H.263)
Muxing mode : Packed bitstream
Codec ID : XVID
Codec ID/Hint : XviD
Duration : 1h 52mn
Bit rate : 1 412 Kbps
Width : 720 pixels
Height : 304 pixels
Display aspect ratio : 2.35:1
Frame rate : 23.976 fps
Color space : YUV
Chroma subsampling : 4:2:0
Bit depth : 8 bits
Scan type : Progressive
Compression mode : Lossy
Bits/(Pixel*Frame) : 0.269
Stream size : 1.11 GiB (91%)
Writing library : XviD 64

Audio
ID : 1
Format : MPEG Audio
Format version : Version 1
Format profile : Layer 3
Mode : Joint stereo
Codec ID : 55
Codec ID/Hint : MP3
Duration : 1h 52mn
Bit rate mode : Constant
Bit rate : 128 Kbps
Channel(s) : 2 channels
Sampling rate : 48.0 KHz
Compression mode : Lossy
Stream size : 103 MiB (8%)
Alignment : Aligned on interleaves
Interleave, duration : 42 ms (1.00 video frame)
Interleave, preload duration : 504 ms
Writing library : LAME3.99r

Notes :

Was asked to do this for a friend, they wanted AVI format, subs cropping out and smaller file size, did what i could, enjoy until DVD drops